<?xml version="1.0" standalone="no"?>
<!DOCTYPE svg PUBLIC "-//W3C//DTD SVG 20010904//EN"
 "http://www.w3.org/TR/2001/REC-SVG-20010904/DTD/svg10.dtd">
<svg version="1.0" xmlns="http://www.w3.org/2000/svg"
 width="500.000000pt" height="500.000000pt" viewBox="0 0 500.000000 500.000000"
 preserveAspectRatio="xMidYMid meet">

<g transform="translate(0.000000,500.000000) scale(0.100000,-0.100000)"
fill="#000000" stroke="none">
<path d="M3194 4202 l-192 -2 -15 -103 c-54 -344 -71 -605 -72 -1067 0 -472
19 -722 73 -935 l17 -70 174 -3 173 -2 -6 27 c-25 118 -39 221 -40 293 -1 75
2 91 27 137 55 105 128 154 239 161 64 4 69 3 97 -25 56 -56 51 -177 -15 -373
-44 -129 -182 -413 -264 -538 -33 -51 -60 -95 -60 -98 0 -2 102 -4 228 -4
l228 0 61 103 c176 295 270 570 280 824 9 197 -21 313 -103 397 -62 64 -105
80 -229 84 -192 7 -327 -41 -443 -157 l-65 -65 7 154 c19 433 97 1033 162
1241 6 22 -23 25 -262 21z"/>
<path d="M763 2993 c-22 -120 -25 -436 -4 -553 19 -109 57 -276 81 -353 l21
-67 169 0 c94 0 170 3 170 8 0 4 -11 57 -25 117 -32 138 -33 209 -3 293 43
123 144 202 258 202 91 0 130 -46 130 -153 0 -115 -88 -372 -192 -564 l-40
-73 230 0 230 0 45 103 c56 129 101 268 123 383 22 115 40 159 89 213 53 59
123 91 198 91 51 0 62 -4 87 -28 76 -77 34 -300 -115 -611 -36 -73 -65 -135
-65 -137 0 -2 101 -4 224 -4 l223 0 38 83 c57 124 111 290 135 417 29 148 25
343 -8 433 -30 84 -78 145 -142 181 -51 28 -64 31 -165 34 -189 6 -329 -42
-438 -151 -32 -32 -60 -57 -62 -55 -1 1 -10 19 -20 38 -31 61 -72 105 -127
136 -52 28 -56 29 -193 29 -120 -1 -149 -4 -204 -23 -80 -29 -152 -75 -213
-135 l-46 -47 14 63 c8 34 28 99 43 145 l29 82 -228 0 -228 0 -19 -97z"/>
</g>
</svg>
